<?xml version="1.0" encoding="utf-8"?>
<!-- Generator: Adobe Illustrator 24.0.0, SVG Export Plug-In . SVG Version: 6.00 Build 0)  -->
<svg version="1.1" id="Layer_1" xmlns="http://www.w3.org/2000/svg" xmlns:xlink="http://www.w3.org/1999/xlink" x="0px" y="0px"
	 viewBox="0 0 210.64 213.95" style="enable-background:new 0 0 210.64 213.95;" xml:space="preserve">
<style type="text/css">
	.st0{fill:#FFFFFF;}
	.st1{fill:#FEFEFE;}
</style>
<g>
	<path class="st1" d="M187.86,146.23c-3.2-14.78-16.77-15.43-32.11-20.95c7.09,9.58,12.11,15.87,11.24,24.67
		c-1.28,12.98,8.7,7.42,14.28,8.08C191.72,159.26,188.84,150.73,187.86,146.23z M148.96,80.93c-12.48,2.43-9.76,16.51-12.76,25.03
		c-2.76,7.85,7.23,10.23,14.39,9.73c11.09-0.78,16.16-7.68,16.64-18.84C165.73,86.52,159.74,78.83,148.96,80.93z M70.87,107.05
		c-4.28-8.8,0.79-24.27-13.69-26.17c-10.83-1.42-17.18,6-17.29,17.09c-0.1,11.17,6.39,16.69,16.24,17.98
		C63.69,115.62,73.51,112.47,70.87,107.05z M103.81,59.31c-13.91-0.19-24.57,9.76-25.15,23.46c-0.63,14.62,9.86,25.82,24.36,26.02
		c13.86,0.18,24.59-9.83,25.18-23.49C128.83,70.7,118.32,59.5,103.81,59.31z M103.02,93.95c-5.62-0.39-9.89-4.46-9.52-10.31
		c0.37-5.61,4.44-9.77,10.34-9.55c5.93,0.23,8.35,5.14,10.15,9.48C112.02,89.84,108.95,94.37,103.02,93.95z M149.51,138.41
		c-16.57-20.54-75.82-20.5-92.23,0.06c-4.25,5.33-4.29,11.18-2.82,16.55c1.68,6.16,7.95,2.84,12.07,3.01
		c11.71,0.46,23.45,0.16,35.18,0.16c12.91,0,25.82,0.29,38.7-0.17c4.09-0.15,10.36,3.22,12.01-3.08
		C153.84,149.53,153.78,143.71,149.51,138.41z M79.42,143.38c16.8-7.9,31.09-8.21,47.41,0H79.42z"/>
	<path class="st0" d="M18.65,140.49c8.28-4.44,14.7-13.88,26.9-9.47c-7.21,11.06-0.61,34.83-26.9,27.11
		C18.65,152.25,18.65,146.37,18.65,140.49z"/>
	<path class="st0" d="M149.51,138.41c-16.57-20.54-75.82-20.5-92.23,0.06c-4.25,5.33-4.29,11.18-2.82,16.55
		c1.68,6.16,7.95,2.84,12.07,3.01c11.71,0.46,23.45,0.16,35.18,0.16c12.91,0,25.82,0.29,38.7-0.17c4.09-0.15,10.36,3.22,12.01-3.08
		C153.84,149.53,153.78,143.71,149.51,138.41z M79.42,143.38c16.8-7.9,31.09-8.21,47.41,0H79.42z"/>
	<path class="st0" d="M103.81,59.31c-13.91-0.19-24.57,9.76-25.15,23.46c-0.63,14.62,9.86,25.82,24.36,26.02
		c13.86,0.18,24.59-9.83,25.18-23.49C128.83,70.7,118.32,59.5,103.81,59.31z M103.02,93.95c-5.62-0.39-9.89-4.46-9.52-10.31
		c0.37-5.61,4.44-9.77,10.34-9.55c5.93,0.23,8.35,5.14,10.15,9.48C112.02,89.84,108.95,94.37,103.02,93.95z"/>
	<path class="st0" d="M56.13,115.95c-9.85-1.29-16.34-6.81-16.23-17.97c0.11-11.1,6.46-18.51,17.28-17.09
		c14.48,1.9,9.41,17.37,13.69,26.17C73.51,112.47,63.7,115.62,56.13,115.95z"/>
	<path class="st0" d="M167.24,96.85c-0.49,11.16-5.55,18.06-16.65,18.84c-7.16,0.5-17.15-1.88-14.39-9.73
		c2.99-8.52,0.28-22.6,12.75-25.03C159.74,78.83,165.74,86.52,167.24,96.85z"/>
	<path class="st0" d="M155.75,125.27c15.35,5.52,28.91,6.17,32.12,20.95c0.98,4.5,3.86,13.03-6.6,11.8
		c-5.58-0.66-15.56,4.9-14.28-8.08C167.86,141.14,162.84,134.86,155.75,125.27z"/>
</g>
</svg>
