<?xml version="1.0" encoding="utf-8"?>
<!-- Generator: Adobe Illustrator 24.0.0, SVG Export Plug-In . SVG Version: 6.00 Build 0)  -->
<svg version="1.1" id="Layer_1" xmlns="http://www.w3.org/2000/svg" xmlns:xlink="http://www.w3.org/1999/xlink" x="0px" y="0px"
	 viewBox="0 0 205.49 200.29" style="enable-background:new 0 0 205.49 200.29;" xml:space="preserve">
<style type="text/css">
	.st0{fill:#FFFFFF;}
	.st1{fill:#FEFEFE;}
</style>
<path class="st0" d="M119.79,37.83c-18.7-8.43-36.96-5.8-52.66,7.83C50.85,59.8,46.11,78.03,52.03,98.41
	c7.87,27.07,24.4,49.31,41.93,70.8c2.34,2.87,4.74,8.14,9.35,2.37c20.94-26.21,41.73-52.51,46.16-84.09
	C148.96,62.53,139.17,46.56,119.79,37.83z M99.64,100.43c-10.58-0.17-17.66-7.3-17.29-18.02c0.35-9.79,7.47-15.19,17.31-16.94
	c10.15,2.05,17.61,7.71,17.12,18.53C116.35,93.69,109.46,100.59,99.64,100.43z"/>
</svg>
