<?xml version="1.0" encoding="utf-8"?>
<!-- Generator: Adobe Illustrator 24.0.0, SVG Export Plug-In . SVG Version: 6.00 Build 0)  -->
<svg version="1.1" id="Layer_1" xmlns="http://www.w3.org/2000/svg" xmlns:xlink="http://www.w3.org/1999/xlink" x="0px" y="0px"
	 viewBox="0 0 210.64 200.29" style="enable-background:new 0 0 210.64 200.29;" xml:space="preserve">
<style type="text/css">
	.st0{fill:#FFFFFF;}
	.st1{fill:#FEFEFE;}
</style>
<g>
	<path class="st0" d="M171.36,132.49c-39.2,0-77.53,0-116.85,0c0-26.17,0-51.72,0-78.11c38.9,0,77.23,0,116.85,0
		C171.36,79.72,171.36,105.29,171.36,132.49z M111.69,119.89c7.87,0,14.47,0.06,21.08-0.01c13.89-0.15,26.73-13.11,26.67-26.84
		c-0.05-12.82-13.08-27.55-25.55-25.89c-20.8,2.76-44.51-10.22-62.11,11.77c-6.43,8.03-5.23,20.45,0.4,29.13
		C83.02,124.75,98.66,118.65,111.69,119.89z"/>
	<path class="st0" d="M144.66,158.82c-39.53,0-77.79,0-116.84,0c0-25.94,0-51.06,0-77.15c8.2-3.27,12.71-2.1,12.5,8.5
		c-0.35,18.07-0.1,36.14-0.1,56.25c32.26,0,63.37,0.17,94.48-0.11C143.48,146.24,148.85,147.78,144.66,158.82z"/>
	<path class="st0" d="M112.73,113.42c-11.8-1.41-19.04-7.43-19.4-19.91c-0.34-11.83,8.97-20.86,20.77-19.93
		c12.26,0.96,18.93,8.11,18.63,20.38C132.43,106.4,124.82,112.31,112.73,113.42z"/>
</g>
</svg>
