<?xml version="1.0" encoding="utf-8"?>
<!-- Generator: Adobe Illustrator 24.0.0, SVG Export Plug-In . SVG Version: 6.00 Build 0)  -->
<svg version="1.1" id="Layer_1" xmlns="http://www.w3.org/2000/svg" xmlns:xlink="http://www.w3.org/1999/xlink" x="0px" y="0px"
	 viewBox="0 0 205.49 213.95" style="enable-background:new 0 0 205.49 213.95;" xml:space="preserve">
<style type="text/css">
	.st0{fill:#414B56;}
</style>
<g>
	<path class="st0" d="M196.9,164.27c-4.53,0.02-9.12-0.41-13.58,0.16c-10.24,1.32-15.25-1.35-14.43-13.15
		c0.46-6.58-2.86-13.42-4.62-20.75c13.74-0.7,22.81,7.55,32.63,14.07C196.9,151.16,196.9,157.71,196.9,164.27z"/>
	<path class="st0" d="M102.87,164.28c-11.75,0-23.51,0.39-35.23-0.17c-5.31-0.25-13.23,3.61-15.44-3.21
		c-2.05-6.33-2.02-13.92,2.19-20.71c15.82-25.54,79.28-25.83,95.99-0.49c4.45,6.75,4.36,14.09,2.72,20.66
		c-1.97,7.89-9.89,3.39-15,3.71C126.39,164.76,114.61,164.28,102.87,164.28z"/>
	<path class="st0" d="M130.07,78.61c-0.43,15.99-13.2,27.58-29.36,26.66c-15.17-0.87-26.06-12.91-25.65-28.39
		c0.42-16.03,13.11-27.55,29.34-26.63C119.56,51.1,130.49,63.16,130.07,78.61z"/>
	<path class="st0" d="M46.97,117.4c-13.68-1.4-22.38-8.38-23.02-23.24c-0.61-14.17,10.23-25.62,24.1-24.12
		c20.19,2.18,13.1,22.18,18.3,33.34C70.29,111.83,57.06,116.37,46.97,117.4z"/>
	<path class="st0" d="M157.68,117.4c-9.79-1.24-23.04-5.51-18.84-14.28c5.3-11.07-2.24-31.35,18.51-33.11
		c13.91-1.18,24.61,10.26,23.82,24.44C180.33,109.26,171.59,116.22,157.68,117.4z"/>
	<path class="st0" d="M41.8,127.55c-2.64,10.01-4.35,16.14-5.85,22.32c-1.42,5.83,3.97,16.22-8.93,14.3
		c-6.28-0.93-15.36,4.8-18.41-4.42c-2.84-8.59,0.28-17.11,8.78-21.74C24.12,134.33,31.52,131.88,41.8,127.55z"/>
</g>
</svg>
