<?xml version="1.0" encoding="utf-8"?>
<!-- Generator: Adobe Illustrator 24.0.0, SVG Export Plug-In . SVG Version: 6.00 Build 0)  -->
<svg version="1.1" id="Layer_1" xmlns="http://www.w3.org/2000/svg" xmlns:xlink="http://www.w3.org/1999/xlink" x="0px" y="0px"
	 viewBox="0 0 205.49 213.95" style="enable-background:new 0 0 205.49 213.95;" xml:space="preserve">
<style type="text/css">
	.st0{fill:#FFFFFF;}
	.st1{fill:#FEFEFE;}
</style>
<g>
	<path class="st0" d="M29.73,181.08C45.88,131.19,61.66,83.1,76.87,34.84c2.47-7.83,6.62-9.75,14.03-9.52
		c14.11,0.42,28.23,0.12,43.95,0.12c-16.29,47.51-31.96,93.63-47.96,139.64c-3.67,10.54-10.38,17.24-23.1,16.19
		C53.03,180.37,42.14,181.08,29.73,181.08z"/>
	<path class="st0" d="M142.23,47.76c15.43,46.58,29.5,89.04,43.72,131.95c-3.05,0.61-4.84,1.22-6.65,1.29
		c-45.89,1.71-53.71-4.65-62.94-49.86c-1.45-7.1,1.77-12.71,3.71-18.68C126.62,92.36,133.72,72.44,142.23,47.76z"/>
</g>
</svg>
