<?xml version="1.0" encoding="utf-8"?>
<!-- Generator: Adobe Illustrator 24.0.0, SVG Export Plug-In . SVG Version: 6.00 Build 0)  -->
<svg version="1.1" id="Layer_1" xmlns="http://www.w3.org/2000/svg" xmlns:xlink="http://www.w3.org/1999/xlink" x="0px" y="0px"
	 viewBox="0 0 210.64 200.29" style="enable-background:new 0 0 210.64 200.29;" xml:space="preserve">
<style type="text/css">
	.st0{fill:#414B56;}
</style>
<g>
	<path class="st0" d="M56.7,156.22c8.84,0,17.67,0,26.51,0c29.2,0,58.39-0.12,87.59,0.12c4.92,0.04,12.28-3.32,12.1,7.18
		c-0.15,9.03-6.22,6.69-10.87,6.7c-39.71,0.13-79.41-0.17-119.12,0.26c-8.5,0.09-10.76-2.45-10.67-10.79
		c0.41-39.7,0.14-79.41,0.25-119.12c0.01-4.72-2.16-10.66,6.82-10.79c8.88-0.13,7.15,5.55,7.16,10.48
		c0.07,28.03,0.39,56.06-0.15,84.08c-0.2,10.17,2.53,11.32,11.97,8.64c19.99-5.66,32.89-19.14,43.53-35.63
		c9.19-14.24,18.46-28.33,31.98-39.02c7.4-5.85,15.53-10.51,24.61-12.77c4.74-1.18,11.53-5.81,14.16,3.06
		c2.22,7.5-2.66,9.91-9,11.37c-13.75,3.16-24.22,11.73-32.15,22.73c-22.2,30.81-41.38,64.92-86.64,67.99
		C55.42,152.57,56.06,154.39,56.7,156.22z"/>
</g>
</svg>
