<?xml version="1.0" encoding="utf-8"?>
<!-- Generator: Adobe Illustrator 24.0.0, SVG Export Plug-In . SVG Version: 6.00 Build 0)  -->
<svg version="1.1" id="Layer_1" xmlns="http://www.w3.org/2000/svg" xmlns:xlink="http://www.w3.org/1999/xlink" x="0px" y="0px"
	 viewBox="0 0 205.49 200.29" style="enable-background:new 0 0 205.49 200.29;" xml:space="preserve">
<style type="text/css">
	.st0{fill:#414B56;}
</style>
<g>
	<path class="st0" d="M11.82,146.41c6.72,0,13.45,0,22.11,0c-10.67-11.08-6.9-23.07-7.16-34.22c-0.46-19.7,0.05-39.42-0.19-59.12
		C26.43,40.66,32.2,35.24,44.53,35.3c37.62,0.2,75.24,0.16,112.86,0.02c10.14-0.04,17.2,3.72,17.35,14.47
		c0.37,27.71,0.31,55.43-0.14,83.14c-0.07,4.16-3.19,8.27-4.89,12.36c6.39,3.06,13.68-1.33,19.83,3.18
		c-2.32,10.59-9.5,12.9-19.16,12.85c-46.25-0.23-92.51-0.35-138.76,0.13c-8.19,0.09-13.99-3.06-19.8-7.64
		C11.82,151.35,11.82,148.88,11.82,146.41z M100.96,50.19c-16.05,0-32.11,0.44-48.14-0.18c-8.62-0.34-11.89,1.88-11.56,11.1
		c0.69,19.7,0.61,39.45,0.03,59.16c-0.25,8.62,1.93,11.69,11.13,11.53c32.09-0.55,64.19-0.49,96.28-0.03
		c8.6,0.12,11.88-1.88,11.56-11.11c-0.69-19.7-0.61-39.45-0.03-59.16c0.25-8.62-1.91-11.95-11.14-11.52
		C133.09,50.73,117.01,50.19,100.96,50.19z"/>
</g>
</svg>
